<svg id="Layer_1" data-name="Layer 1" xmlns="http://www.w3.org/2000/svg" viewBox="0 0 419.14 162.32"><defs><style>.cls-1{fill:#af292e;}.cls-2{fill:#a9abad;}.cls-3{fill:#fdfcfc;}</style></defs><rect class="cls-1" x="0.71" y="0.64" width="128.43" height="161.03" rx="13.79"/><path class="cls-1" d="M318.34,64.75a35.94,35.94,0,0,0-7-21.54c-5.8-8.12-13.33-13.63-23.88-12.94-11.6.75-18.89,7.83-23.07,17.86-6.77,16.19-7.16,33.4-6.77,50.62.13,5.63.52,11.25-.94,16.82-.65,2.46-1.56,4.5-4.29,4.65-2.95.16-4.77-1.59-5.62-4.34a7.54,7.54,0,0,1-.59-2.22c.49-19.91-2.89-40.11,2.49-59.66,3.83-13.91,11.59-26,25.43-32.14,22.74-10.13,56.26-2.74,61.3,30.94,3.91,26.23,2.78,52.67,2.54,79-.07,8.2-5.37,13-12.43,12.68-6.57-.27-10.25-5.06-9.95-13.73.4-11.26,1.15-22.52,1.75-33.77C317.65,97,318.28,75.51,318.34,64.75Z"/><path class="cls-1" d="M377.55,142a67.51,67.51,0,0,1-18.25-2.52c-3.35-.89-4.91-2.86-4.12-6.16.84-3.54,3.52-2.86,6.19-2.34a63.28,63.28,0,0,0,19.23.81c8.29-.93,13.38-5.67,16.66-13,3.36-7.51-.38-13-5.29-17.79-7.35-7.14-15.15-13.83-22.79-20.68-11.82-10.57-16.56-25.57-11.92-37.88C362,29.8,376,20.6,391.36,20.09a50.52,50.52,0,0,1,17.57,2.16c1.88.62,4.31.95,3.92,3.83a4.91,4.91,0,0,1-5.25,4.61,60.35,60.35,0,0,1-7.66-.9c-11.76-1.58-17.86.76-22,8.42-4,7.42-2.74,17.76,4.33,24.87,7.38,7.43,15.51,14.17,23.61,20.85,23.37,19.29,10.4,46.71-13.87,55.68A35.86,35.86,0,0,1,377.55,142Z"/><path class="cls-1" d="M221.05,144.15c-50.85-.66-64.85-46.63-58.84-78.56,6.07-32.31,38.12-48.17,63.58-47.63,3.07.06,7.5-.65,7.6,4.31.1,4.73-3.74,4.52-7.21,4.75C206.59,28.35,194.91,38,189.12,57.31c-6.19,20.69-5.46,40.92,4,60.6,5.56,11.6,15.34,16.65,27.7,18,4.48.48,12.32-2,12,4.44C232.39,145,224.52,144.16,221.05,144.15Z"/><path class="cls-2" d="M101.43,106.92c-1.13,10.17-6,19.09-16.49,24-12.33,5.83-23.3,2-32.57-6.57-10.35-9.57-19.93-20-30-29.8-3.61-3.5-4.45-6.89-.84-10.56s7.42-2.7,10.76.7q15.38,15.66,30.68,31.36c7.11,7.28,16.06,8.68,22.84,3.59,8.09-6.09,9.84-14.79,4.84-23.85S77,80.6,70.31,72.9c-2.61-3-9.5-6.39-4.44-11C70.39,57.74,73.36,64.2,76,67c6.86,7.25,14.76,13.61,20,22.27A32.47,32.47,0,0,1,101.43,106.92Z"/><path class="cls-3" d="M39.26,69.89c1.49-16.3,8.63-29.44,23.37-37.3,13.7-7.31,26.95-3.88,39.46,3.85a14.88,14.88,0,0,1,3.6,2.87c1.53,1.86,5.19,3.78,3.29,6.12-2.47,3-4.33-1.25-6-2.38-10.56-7-21.34-6.82-33.78,1.46A50.65,50.65,0,0,0,50.73,65.74C46.45,75,47.4,83.57,53.88,91.52c1.37,1.67,4.56,3.62,2.59,5.53-2.6,2.53-4.54-1.16-6.12-2.71C43.55,87.68,38.77,80,39.26,69.89Z"/></svg>